# xmcd
#
# Track frame offsets: 
#        150
#        14822
#        29247
#        43761
#        61544
#        75584
#        91013
#        104900
#        117782
#        133292
#        145906
#        161058
#        176510
#        188268
#        202546
#
# Disc length: 2902 seconds
#
# Revision: 0
# Processed by: cddbd v1.5.2PL0 Copyright (c) Steve Scherf et al.
# Submitted via: ExactAudioCopy v0.99pb4
#
DISCID=c70b540f
DTITLE=Marc Pircher - Wer wenn nicht Du
DYEAR=2010
DGENRE=Country
TTITLE0=Wer wenn nicht Du
TTITLE1=Ob in Hamburg, München, Wien
TTITLE2=Du schon wieder
TTITLE3=Wahre Liebe
TTITLE4=Non stop zu Dir
TTITLE5=Jetzt bist da (für Anna)
TTITLE6=Hände in die Höh
TTITLE7=Ich habe mein Wort einer anderen gegeben
TTITLE8=Mit Dir halt ich die Liebe aus 
TTITLE9=A bissl was geht alleweil
TTITLE10=Wie ein Leuchtturm in den Bergen
TTITLE11=Da hab i s'bussln g'lernt
TTITLE12=Dirndl necken
TTITLE13=Verliebt bis über beide Ohren
TTITLE14=Party ohne Ende
EXTD=
EXTT0=
EXTT1=
EXTT2=
EXTT3=
EXTT4=
EXTT5=
EXTT6=
EXTT7=
EXTT8=
EXTT9=
EXTT10=
EXTT11=
EXTT12=
EXTT13=
EXTT14=
PLAYORDER=
